<svg xmlns="http://www.w3.org/2000/svg" viewBox="0 0 24 24">
	<defs>
		<style>
			.red {
				fill: #da513d;
			}
		</style>
	</defs>
	<path class="red" d="M5.5,6.207V20.4216L11.75,22.53,18,20.4216V6.207L11.75,2Zm5.7692,15.1279L7.5,20.0718l2.8077-.9424v-1.03l-3.8462,1.302V15.33l.7212-1.4671,2.3365.787,1.75,2.6525Zm0-5.7811-1.1346-1.72L6.7019,12.6779l-.24.4858V11.0262l4.8077,1.6226Zm0-3.935L6.4615,10.006V7.14l4.8077,1.6226Zm0-3.8864L7.0673,6.3236l4.2019-2.8371Zm.9615-4.2459,4.2019,2.8371L12.2308,7.7324Zm0,5.2758L17.0385,7.14V10.006l-4.8077,1.6128Zm0,3.8864,4.8077-1.6226v2.1375l-.24-.4858-3.4327,1.1562-1.1346,1.72Zm0,4.654,1.75-2.6525,2.3365-.787.7212,1.4671v4.071l-3.8462-1.302v1.03L16,20.0718l-3.7692,1.2631Z"/>
</svg>
